<?xml version="1.0" encoding="UTF-8" standalone="no"?><svg xmlns="http://www.w3.org/2000/svg" xmlns:xlink="http://www.w3.org/1999/xlink" contentScriptType="application/ecmascript" contentStyleType="text/css" height="1107px" preserveAspectRatio="none" style="width:959px;height:1107px;" version="1.1" viewBox="0 0 959 1107" width="959px" zoomAndPan="magnify"><defs/><g><!--MD5=[4be1cdfc670efcd976ad105821201be8]
cluster Host (e.g., your laptop, desktop)--><rect fill="#FFFFFF" height="950" rx="12.5" ry="12.5" style="stroke: #0B5C92; stroke-width: 1.5;" width="934" x="14" y="146"/><text fill="#000000" font-family="sans-serif" font-size="15" lengthAdjust="spacingAndGlyphs" textLength="239" x="361.5" y="161.9233">Host (e.g., your laptop, desktop)</text><!--MD5=[2ae7e4735d846b7a52565541d65559c9]
cluster Docker (containerd)--><rect fill="#FFFFFF" height="744" rx="12.5" ry="12.5" style="stroke: #0B5C92; stroke-width: 1.5;" width="918" x="22" y="344"/><text fill="#000000" font-family="sans-serif" font-size="15" lengthAdjust="spacingAndGlyphs" textLength="145" x="408.5" y="359.9233">Docker (containerd)</text><!--MD5=[33e7178e164195903ad9362b3f6f3945]
cluster k3s--><rect fill="#FFFFFF" height="708" rx="12.5" ry="12.5" style="stroke: #0B5C92; stroke-width: 1.5;" width="740" x="30" y="372"/><text fill="#000000" font-family="sans-serif" font-size="15" lengthAdjust="spacingAndGlyphs" textLength="84" x="358" y="387.9233">K3s Cluster</text><text fill="#000000" font-family="sans-serif" font-size="15" lengthAdjust="spacingAndGlyphs" textLength="144" x="328" y="405.3843">(master and agent)</text><!--MD5=[07561ed3866789d4be28968dd387c89a]
entity k3d--><rect fill="#E0E59A" height="37.4609" style="stroke: #0B5C92; stroke-width: 1.5;" width="47" x="695.5" y="174"/><text fill="#000000" font-family="sans-serif" font-size="15" lengthAdjust="spacingAndGlyphs" textLength="27" x="705.5" y="197.9233">k3d</text><!--MD5=[07bb54a82a792e3633d19f9b3934520f]
entity private_registry--><rect fill="#E0E59A" height="54.9219" style="stroke: #0B5C92; stroke-width: 1.5;" width="154" x="778" y="733"/><rect fill="#E0E59A" height="5" style="stroke: #0B5C92; stroke-width: 1.5;" width="10" x="773" y="738"/><rect fill="#E0E59A" height="5" style="stroke: #0B5C92; stroke-width: 1.5;" width="10" x="773" y="777.9219"/><text fill="#000000" font-family="sans-serif" font-size="15" lengthAdjust="spacingAndGlyphs" textLength="50" x="788" y="756.9233">Private</text><text fill="#000000" font-family="sans-serif" font-size="15" lengthAdjust="spacingAndGlyphs" textLength="134" x="788" y="774.3843">Container Registry</text><!--MD5=[ea19deeb053b6d935524ddb2281a69ee]
entity traefik--><rect fill="#E0E59A" height="37.4609" style="stroke: #0B5C92; stroke-width: 1.5;" width="69" x="435.5" y="417"/><rect fill="#E0E59A" height="5" style="stroke: #0B5C92; stroke-width: 1.5;" width="10" x="430.5" y="422"/><rect fill="#E0E59A" height="5" style="stroke: #0B5C92; stroke-width: 1.5;" width="10" x="430.5" y="444.4609"/><text fill="#000000" font-family="sans-serif" font-size="15" lengthAdjust="spacingAndGlyphs" textLength="49" x="445.5" y="440.9233">Traefik</text><!--MD5=[4d75d79b92da33bc2d29332283d47d73]
entity taiga--><rect fill="#E0E59A" height="37.4609" style="stroke: #0B5C92; stroke-width: 1.5;" width="59" x="483.5" y="1035"/><rect fill="#E0E59A" height="5" style="stroke: #0B5C92; stroke-width: 1.5;" width="10" x="478.5" y="1040"/><rect fill="#E0E59A" height="5" style="stroke: #0B5C92; stroke-width: 1.5;" width="10" x="478.5" y="1062.4609"/><text fill="#000000" font-family="sans-serif" font-size="15" lengthAdjust="spacingAndGlyphs" textLength="39" x="493.5" y="1058.9233">Taiga</text><!--MD5=[670ed58fbcfa18955cb1914f9e6929f5]
entity gitlab--><rect fill="#E0E59A" height="37.4609" style="stroke: #0B5C92; stroke-width: 1.5;" width="67" x="577.5" y="1035"/><rect fill="#E0E59A" height="5" style="stroke: #0B5C92; stroke-width: 1.5;" width="10" x="572.5" y="1040"/><rect fill="#E0E59A" height="5" style="stroke: #0B5C92; stroke-width: 1.5;" width="10" x="572.5" y="1062.4609"/><text fill="#000000" font-family="sans-serif" font-size="15" lengthAdjust="spacingAndGlyphs" textLength="47" x="587.5" y="1058.9233">GitLab</text><!--MD5=[1e9850f9cfe07ce8e5f3f8dc0c4ecb50]
entity drone--><rect fill="#E0E59A" height="37.4609" style="stroke: #0B5C92; stroke-width: 1.5;" width="82" x="680" y="1035"/><rect fill="#E0E59A" height="5" style="stroke: #0B5C92; stroke-width: 1.5;" width="10" x="675" y="1040"/><rect fill="#E0E59A" height="5" style="stroke: #0B5C92; stroke-width: 1.5;" width="10" x="675" y="1062.4609"/><text fill="#000000" font-family="sans-serif" font-size="15" lengthAdjust="spacingAndGlyphs" textLength="62" x="690" y="1058.9233">Drone CI</text><!--MD5=[e847a74e70eb890cacdcf5c5829348e8]
entity sonarqube--><rect fill="#E0E59A" height="37.4609" style="stroke: #0B5C92; stroke-width: 1.5;" width="102" x="38" y="1035"/><rect fill="#E0E59A" height="5" style="stroke: #0B5C92; stroke-width: 1.5;" width="10" x="33" y="1040"/><rect fill="#E0E59A" height="5" style="stroke: #0B5C92; stroke-width: 1.5;" width="10" x="33" y="1062.4609"/><text fill="#000000" font-family="sans-serif" font-size="15" lengthAdjust="spacingAndGlyphs" textLength="82" x="48" y="1058.9233">SonarQube</text><!--MD5=[524ab8556cbb665269a12109d7bc13a8]
entity plantuml_server--><rect fill="#E0E59A" height="37.4609" style="stroke: #0B5C92; stroke-width: 1.5;" width="141" x="175.5" y="1035"/><rect fill="#E0E59A" height="5" style="stroke: #0B5C92; stroke-width: 1.5;" width="10" x="170.5" y="1040"/><rect fill="#E0E59A" height="5" style="stroke: #0B5C92; stroke-width: 1.5;" width="10" x="170.5" y="1062.4609"/><text fill="#000000" font-family="sans-serif" font-size="15" lengthAdjust="spacingAndGlyphs" textLength="121" x="185.5" y="1058.9233">PlantUML Server</text><!--MD5=[6cba453d2efd31cc8bdf24f5f05e0794]
entity heimdall2--><rect fill="#E0E59A" height="37.4609" style="stroke: #0B5C92; stroke-width: 1.5;" width="97" x="351.5" y="1035"/><rect fill="#E0E59A" height="5" style="stroke: #0B5C92; stroke-width: 1.5;" width="10" x="346.5" y="1040"/><rect fill="#E0E59A" height="5" style="stroke: #0B5C92; stroke-width: 1.5;" width="10" x="346.5" y="1062.4609"/><text fill="#000000" font-family="sans-serif" font-size="15" lengthAdjust="spacingAndGlyphs" textLength="77" x="361.5" y="1058.9233">Heimdall 2</text><!--MD5=[5f66382a65af237d8b1cbd7b4edbed42]
entity you--><ellipse cx="796" cy="17.5" fill="#FFFFFF" rx="8" ry="8" style="stroke: #0B5C92; stroke-width: 1.5;"/><path d="M796,25.5 L796,52.5 M783,33.5 L809,33.5 M796,52.5 L783,67.5 M796,52.5 L809,67.5 " fill="none" style="stroke: #0B5C92; stroke-width: 1.5;"/><text fill="#000000" font-family="sans-serif" font-size="18" lengthAdjust="spacingAndGlyphs" textLength="34" x="779" y="86.708">You</text><!--MD5=[4a0bffc4f18946e47f53278c3dcc1383]
link traefik to gitlab--><path d="M489.3771,458.3243 C503.071,476.8121 519,504.1875 519,531.5 C519,531.5 519,531.5 519,973.5 C519,1003.5884 547.3672,1024.9288 572.5979,1037.959 " fill="none" id="traefik-gitlab" style="stroke: #0B5C92; stroke-width: 1.0; stroke-dasharray: 7.0,7.0;"/><polygon fill="#0B5C92" points="577.265,1040.2955,571.008,1032.6896,572.794,1038.0571,567.4265,1039.8431,577.265,1040.2955" style="stroke: #0B5C92; stroke-width: 1.0;"/><polygon fill="#0B5C92" points="486.3163,454.286,488.565,463.8747,489.3366,458.2707,494.9406,459.0423,486.3163,454.286" style="stroke: #0B5C92; stroke-width: 1.0;"/><text fill="#000000" font-family="sans-serif" font-size="13" lengthAdjust="spacingAndGlyphs" textLength="26" x="520" y="765.0669">http</text><!--MD5=[e9470e8992ed424a011afbbc46ce35fb]
link traefik to drone--><path d="M509.7758,443.4772 C553.3106,454.7983 617,480.1377 617,531.5 C617,531.5 617,531.5 617,973.5 C617,1004.9392 647.228,1025.7315 675.0908,1038.219 " fill="none" id="traefik-drone" style="stroke: #0B5C92; stroke-width: 1.0; stroke-dasharray: 7.0,7.0;"/><polygon fill="#0B5C92" points="679.8964,1040.3033,673.2312,1033.0524,675.3093,1038.3137,670.0479,1040.3918,679.8964,1040.3033" style="stroke: #0B5C92; stroke-width: 1.0;"/><polygon fill="#0B5C92" points="504.8369,442.2301,512.5835,448.312,509.6847,443.4544,514.5424,440.5555,504.8369,442.2301" style="stroke: #0B5C92; stroke-width: 1.0;"/><text fill="#000000" font-family="sans-serif" font-size="13" lengthAdjust="spacingAndGlyphs" textLength="26" x="618" y="765.0669">http</text><!--MD5=[e9470e8992ed424a011afbbc46ce35fb]
link traefik to drone--><path d="M509.8693,442.5843 C579.2809,456.0617 715,487.9782 715,531.5 C715,531.5 715,531.5 715,973.5 C715,992.3952 716.685,1013.7305 718.2691,1029.6134 " fill="none" id="traefik-drone-1" style="stroke: #0B5C92; stroke-width: 1.0; stroke-dasharray: 7.0,7.0;"/><polygon fill="#0B5C92" points="718.7999,1034.7793,721.8589,1025.4175,718.2888,1029.8055,713.9008,1026.2354,718.7999,1034.7793" style="stroke: #0B5C92; stroke-width: 1.0;"/><polygon fill="#0B5C92" points="504.5829,441.5687,512.6665,447.195,509.4931,442.5121,514.176,439.3387,504.5829,441.5687" style="stroke: #0B5C92; stroke-width: 1.0;"/><text fill="#000000" font-family="sans-serif" font-size="13" lengthAdjust="spacingAndGlyphs" textLength="26" x="716" y="765.0669">http</text><!--MD5=[b8653e110259213fb41efeb2525d0a73]
link traefik to taiga--><path d="M450.6229,458.3243 C436.929,476.8121 421,504.1875 421,531.5 C421,531.5 421,531.5 421,973.5 C421,1005.1825 452.4526,1027.1655 478.577,1039.9601 " fill="none" id="traefik-taiga" style="stroke: #0B5C92; stroke-width: 1.0; stroke-dasharray: 7.0,7.0;"/><polygon fill="#0B5C92" points="483.3842,1042.2424,476.9697,1034.7689,478.8674,1040.0979,473.5384,1041.9957,483.3842,1042.2424" style="stroke: #0B5C92; stroke-width: 1.0;"/><polygon fill="#0B5C92" points="453.6837,454.286,445.0594,459.0423,450.6634,458.2707,451.435,463.8747,453.6837,454.286" style="stroke: #0B5C92; stroke-width: 1.0;"/><text fill="#000000" font-family="sans-serif" font-size="13" lengthAdjust="spacingAndGlyphs" textLength="26" x="422" y="765.0669">http</text><!--MD5=[f30901609fb42a36aa8c7f1cc6eb235a]
link traefik to plantuml_server--><path d="M430.1307,442.5843 C360.7191,456.0617 225,487.9782 225,531.5 C225,531.5 225,531.5 225,973.5 C225,992.8516 230.8197,1013.9989 236.3317,1029.6884 " fill="none" id="traefik-plantuml_server" style="stroke: #0B5C92; stroke-width: 1.0; stroke-dasharray: 7.0,7.0;"/><polygon fill="#0B5C92" points="238.1804,1034.7895,238.8747,1024.9651,236.4768,1030.0887,231.3533,1027.6908,238.1804,1034.7895" style="stroke: #0B5C92; stroke-width: 1.0;"/><polygon fill="#0B5C92" points="435.4171,441.5687,425.824,439.3387,430.5069,442.5121,427.3335,447.195,435.4171,441.5687" style="stroke: #0B5C92; stroke-width: 1.0;"/><text fill="#000000" font-family="sans-serif" font-size="13" lengthAdjust="spacingAndGlyphs" textLength="26" x="226" y="765.0669">http</text><!--MD5=[9fd76121e9899f6d78173f7e5a67c62f]
link traefik to sonarqube--><path d="M430.098,437.64 C335.9825,443.7752 108,465.4533 108,531.5 C108,531.5 108,531.5 108,973.5 C108,992.7381 102.7346,1013.8914 97.7475,1029.612 " fill="none" id="traefik-sonarqube" style="stroke: #0B5C92; stroke-width: 1.0; stroke-dasharray: 7.0,7.0;"/><polygon fill="#0B5C92" points="96.0749,1034.7245,102.6751,1027.4144,97.6296,1029.9724,95.0717,1024.9269,96.0749,1034.7245" style="stroke: #0B5C92; stroke-width: 1.0;"/><polygon fill="#0B5C92" points="435.2899,437.3085,426.0532,433.8903,430.3001,437.6272,426.5632,441.8741,435.2899,437.3085" style="stroke: #0B5C92; stroke-width: 1.0;"/><text fill="#000000" font-family="sans-serif" font-size="13" lengthAdjust="spacingAndGlyphs" textLength="26" x="109" y="765.0669">http</text><!--MD5=[19255fa76e8324a5bbe22b8095946230]
link traefik to heimdall2--><path d="M430.2242,443.4772 C386.6894,454.7983 323,480.1377 323,531.5 C323,531.5 323,531.5 323,973.5 C323,998.0527 342.0601,1017.9768 361.2145,1031.8004 " fill="none" id="traefik-heimdall2" style="stroke: #0B5C92; stroke-width: 1.0; stroke-dasharray: 7.0,7.0;"/><polygon fill="#0B5C92" points="365.5539,1034.8315,360.4663,1026.3984,361.4549,1031.9682,355.8851,1032.9568,365.5539,1034.8315" style="stroke: #0B5C92; stroke-width: 1.0;"/><polygon fill="#0B5C92" points="435.1631,442.2301,425.4576,440.5555,430.3153,443.4544,427.4165,448.312,435.1631,442.2301" style="stroke: #0B5C92; stroke-width: 1.0;"/><text fill="#000000" font-family="sans-serif" font-size="13" lengthAdjust="spacingAndGlyphs" textLength="26" x="324" y="765.0669">http</text><!--MD5=[f05574999751145ba2892489da421d09]
link k3s to private_registry--><path d="M770.1232,490.9609 C770.3876,491.2721 770.6505,491.5834 770.9118,491.895 C779.2746,501.8646 786,512.1192 786,531.5 C786,531.5 786,531.5 786,671.5 C786,693.6691 799.537,713.6602 814.6191,729.0534 " fill="none" id="k3s-private_registry" style="stroke: #0B5C92; stroke-width: 1.0; stroke-dasharray: 7.0,7.0;"/><polygon fill="#0B5C92" points="818.4795,732.8664,814.8874,723.696,814.9222,729.3527,809.2655,729.3876,818.4795,732.8664" style="stroke: #0B5C92; stroke-width: 1.0;"/><polygon fill="#0B5C92" points="770.1232,490.9609,772.9008,500.4099,773.36,494.7718,778.9982,495.231,770.1232,490.9609" style="stroke: #0B5C92; stroke-width: 1.0;"/><text fill="#000000" font-family="sans-serif" font-size="13" lengthAdjust="spacingAndGlyphs" textLength="26" x="787" y="606.0669">http</text><!--MD5=[43eccda0398717c6db732b8f368fa79c]
link you to private_registry--><path d="M816.4736,73.444 C837.4465,100.4885 867,146.7198 867,192.5 C867,192.5 867,192.5 867,671.5 C867,690.2923 864.3399,711.118 861.5246,727.8966 " fill="none" id="you-private_registry" style="stroke: #0B5C92; stroke-width: 1.0;"/><polygon fill="#0B5C92" points="860.6486,732.967,866.1223,724.7793,861.4997,728.04,858.239,723.4174,860.6486,732.967" style="stroke: #0B5C92; stroke-width: 1.0;"/><polygon fill="#0B5C92" points="813.1871,69.2713,815.6134,78.8166,816.2808,73.1993,821.8981,73.8667,813.1871,69.2713" style="stroke: #0B5C92; stroke-width: 1.0;"/><text fill="#000000" font-family="sans-serif" font-size="13" lengthAdjust="spacingAndGlyphs" textLength="33" x="868" y="497.0669">https</text><!--MD5=[61daf8cf8e0c5533f846d3e0ff8b2ec9]
link you to traefik--><path d="M805.2934,96.3158 C813.5062,151.6186 818.199,243.8164 774,305 C741.4185,350.1018 584.0293,401.6831 509.4085,424.103 " fill="none" id="you-traefik" style="stroke: #0B5C92; stroke-width: 1.0;"/><polygon fill="#0B5C92" points="504.6153,425.5372,514.3843,426.7891,509.4054,424.1038,512.0908,419.1249,504.6153,425.5372" style="stroke: #0B5C92; stroke-width: 1.0;"/><polygon fill="#0B5C92" points="804.4892,91.0814,801.9026,100.5845,805.2486,96.0234,809.8098,99.3694,804.4892,91.0814" style="stroke: #0B5C92; stroke-width: 1.0;"/><text fill="#000000" font-family="sans-serif" font-size="13" lengthAdjust="spacingAndGlyphs" textLength="33" x="802" y="254.0669">https</text><!--MD5=[545e5e09cc974484da6b27cec56acfcb]
link you to k3d--><path d="M778.8832,78.5212 C771.3892,91.4365 762.5925,106.8863 755,121 C746.4226,136.9445 737.2524,155.1769 730.314,169.2397 " fill="none" id="you-&gt;k3d" style="stroke: #0B5C92; stroke-width: 1.0;"/><polygon fill="#0B5C92" points="728.0505,173.8396,735.6131,167.5304,730.2581,169.3533,728.4351,163.9983,728.0505,173.8396" style="stroke: #0B5C92; stroke-width: 1.0;"/><text fill="#000000" font-family="sans-serif" font-size="13" lengthAdjust="spacingAndGlyphs" textLength="13" x="756" y="134.0669">cli</text><!--MD5=[280280f242cd5d842e36b02791ae8391]
link k3d to k3s--><path d="M720.7666,211.1643 C723.3753,238.726 728.4386,292.2207 732.9665,340.0594 C733.5325,346.0392 734.0901,351.9307 734.6336,357.6721 C734.9053,360.5427 735.1734,363.3759 735.4373,366.1639 C735.5692,367.5578 735.7001,368.9405 735.8298,370.3109 C735.8623,370.6535 735.8946,370.9953 735.9269,371.3364 " fill="none" id="k3d-&gt;k3s" style="stroke: #0B5C92; stroke-width: 1.0;"/><polygon fill="#0B5C92" points="735.9269,371.3364,739.061,361.9995,735.4557,366.3586,731.0966,362.7533,735.9269,371.3364" style="stroke: #0B5C92; stroke-width: 1.0;"/><text fill="#000000" font-family="sans-serif" font-size="13" lengthAdjust="spacingAndGlyphs" textLength="19" x="730" y="301.0669">api</text><!--MD5=[1f491b31c1f9e575d04366fe8ab0d9b6]
@startuml
skinparam shadowing false

skinparam actor {
  BorderColor #0B5C92
  BackgroundColor none
  FontStyle "Thin"
  FontSize 18
}

skinparam node {
  BorderColor #0B5C92
  BackgroundColor #ffffff
  FontStyle "Thin"
  FontSize 15
}

skinparam rectangle {
  roundCorner 25
  BorderColor #0B5C92
  BackgroundColor #ffffff
  FontStyle "Thin"
  FontSize 15
}

skinparam component {
  BorderColor #0B5C92
  BackgroundColor #e0e59a
  FontStyle "Thin"
  FontSize 15
}

skinparam agent {
  BorderColor #0B5C92
  BackgroundColor #e0e59a
  FontStyle "Thin"
  FontSize 15
}


skinparam note {
  BorderColor #0B5C92
  BackgroundColor #FEFECE
  FontStyle "Thin"
  FontSize 15
}

skinparam database {
  BorderColor #0B5C92
  BackgroundColor #e0e59a
  FontStyle "Thin"
  FontSize 15
}

actor "You" as you

rectangle "Host (e.g., your laptop, desktop)" {

  rectangle "Docker (containerd)" {

    rectangle "K3s Cluster\n(master and agent)" as k3s {
      component "Traefik" as traefik
      component "Taiga" as taiga
      component "GitLab" as gitlab
      component "Drone CI" as drone
      component "SonarQube" as sonarqube
      component "PlantUML Server" as plantuml_server
      component "Heimdall 2" as heimdall2
    }

    component "Private\nContainer Registry" as private_registry
  }

  agent "k3d" as k3d
}



traefik <.[#0B5C92]d.> gitlab : http
traefik <.[#0B5C92]d.> drone : http
traefik <.[#0B5C92]d.> taiga : http
traefik <.[#0B5C92]d.> plantuml_server : http
traefik <.[#0B5C92]d.> drone : http
traefik <.[#0B5C92]d.> sonarqube : http
traefik <.[#0B5C92]d.> heimdall2 : http

k3s <.[#0B5C92]d.> private_registry : http

you <-[#0B5C92]d-> private_registry : https
you <-[#0B5C92]d-> traefik : https

you -[#0B5C92]d-> k3d : cli
k3d -[#0B5C92]d-> k3s : api

@enduml

PlantUML version 1.2020.06(Sun Apr 05 12:38:32 GMT 2020)
(GPL source distribution)
Java Runtime: OpenJDK Runtime Environment
JVM: OpenJDK 64-Bit Server VM
Java Version: 14-ea+33
Operating System: Linux
Default Encoding: UTF-8
Language: en
Country: US
--></g></svg>