<?xml version="1.0" encoding="UTF-8" standalone="no"?><svg xmlns="http://www.w3.org/2000/svg" xmlns:xlink="http://www.w3.org/1999/xlink" contentScriptType="application/ecmascript" contentStyleType="text/css" height="937px" preserveAspectRatio="none" style="width:959px;height:937px;" version="1.1" viewBox="0 0 959 937" width="959px" zoomAndPan="magnify"><defs/><g><!--MD5=[4be1cdfc670efcd976ad105821201be8]
cluster Host (e.g., your laptop, desktop)--><rect fill="#FFFFFF" height="780" rx="12.5" ry="12.5" style="stroke: #0B5C92; stroke-width: 1.5;" width="934" x="14" y="146"/><text fill="#000000" font-family="sans-serif" font-size="15" lengthAdjust="spacingAndGlyphs" textLength="239" x="361.5" y="161.9233">Host (e.g., your laptop, desktop)</text><!--MD5=[2ae7e4735d846b7a52565541d65559c9]
cluster Docker (containerd)--><rect fill="#FFFFFF" height="744" rx="12.5" ry="12.5" style="stroke: #0B5C92; stroke-width: 1.5;" width="918" x="22" y="174"/><text fill="#000000" font-family="sans-serif" font-size="15" lengthAdjust="spacingAndGlyphs" textLength="145" x="408.5" y="189.9233">Docker (containerd)</text><!--MD5=[33e7178e164195903ad9362b3f6f3945]
cluster k3s--><rect fill="#FFFFFF" height="708" rx="12.5" ry="12.5" style="stroke: #0B5C92; stroke-width: 1.5;" width="740" x="30" y="202"/><text fill="#000000" font-family="sans-serif" font-size="15" lengthAdjust="spacingAndGlyphs" textLength="84" x="358" y="217.9233">K3s Cluster</text><text fill="#000000" font-family="sans-serif" font-size="15" lengthAdjust="spacingAndGlyphs" textLength="144" x="328" y="235.3843">(master and agent)</text><!--MD5=[07bb54a82a792e3633d19f9b3934520f]
entity private_registry--><rect fill="#E0E59A" height="54.9219" style="stroke: #0B5C92; stroke-width: 1.5;" width="154" x="778" y="563"/><rect fill="#E0E59A" height="5" style="stroke: #0B5C92; stroke-width: 1.5;" width="10" x="773" y="568"/><rect fill="#E0E59A" height="5" style="stroke: #0B5C92; stroke-width: 1.5;" width="10" x="773" y="607.9219"/><text fill="#000000" font-family="sans-serif" font-size="15" lengthAdjust="spacingAndGlyphs" textLength="50" x="788" y="586.9233">Private</text><text fill="#000000" font-family="sans-serif" font-size="15" lengthAdjust="spacingAndGlyphs" textLength="134" x="788" y="604.3843">Container Registry</text><!--MD5=[ea19deeb053b6d935524ddb2281a69ee]
entity traefik--><rect fill="#E0E59A" height="37.4609" style="stroke: #0B5C92; stroke-width: 1.5;" width="69" x="381.5" y="247"/><rect fill="#E0E59A" height="5" style="stroke: #0B5C92; stroke-width: 1.5;" width="10" x="376.5" y="252"/><rect fill="#E0E59A" height="5" style="stroke: #0B5C92; stroke-width: 1.5;" width="10" x="376.5" y="274.4609"/><text fill="#000000" font-family="sans-serif" font-size="15" lengthAdjust="spacingAndGlyphs" textLength="49" x="391.5" y="270.9233">Traefik</text><!--MD5=[4d75d79b92da33bc2d29332283d47d73]
entity taiga--><rect fill="#E0E59A" height="37.4609" style="stroke: #0B5C92; stroke-width: 1.5;" width="59" x="38.5" y="865"/><rect fill="#E0E59A" height="5" style="stroke: #0B5C92; stroke-width: 1.5;" width="10" x="33.5" y="870"/><rect fill="#E0E59A" height="5" style="stroke: #0B5C92; stroke-width: 1.5;" width="10" x="33.5" y="892.4609"/><text fill="#000000" font-family="sans-serif" font-size="15" lengthAdjust="spacingAndGlyphs" textLength="39" x="48.5" y="888.9233">Taiga</text><!--MD5=[670ed58fbcfa18955cb1914f9e6929f5]
entity gitlab--><rect fill="#E0E59A" height="37.4609" style="stroke: #0B5C92; stroke-width: 1.5;" width="67" x="132.5" y="865"/><rect fill="#E0E59A" height="5" style="stroke: #0B5C92; stroke-width: 1.5;" width="10" x="127.5" y="870"/><rect fill="#E0E59A" height="5" style="stroke: #0B5C92; stroke-width: 1.5;" width="10" x="127.5" y="892.4609"/><text fill="#000000" font-family="sans-serif" font-size="15" lengthAdjust="spacingAndGlyphs" textLength="47" x="142.5" y="888.9233">GitLab</text><!--MD5=[1e9850f9cfe07ce8e5f3f8dc0c4ecb50]
entity drone--><rect fill="#E0E59A" height="37.4609" style="stroke: #0B5C92; stroke-width: 1.5;" width="82" x="235" y="865"/><rect fill="#E0E59A" height="5" style="stroke: #0B5C92; stroke-width: 1.5;" width="10" x="230" y="870"/><rect fill="#E0E59A" height="5" style="stroke: #0B5C92; stroke-width: 1.5;" width="10" x="230" y="892.4609"/><text fill="#000000" font-family="sans-serif" font-size="15" lengthAdjust="spacingAndGlyphs" textLength="62" x="245" y="888.9233">Drone CI</text><!--MD5=[e847a74e70eb890cacdcf5c5829348e8]
entity sonarqube--><rect fill="#E0E59A" height="37.4609" style="stroke: #0B5C92; stroke-width: 1.5;" width="102" x="352" y="865"/><rect fill="#E0E59A" height="5" style="stroke: #0B5C92; stroke-width: 1.5;" width="10" x="347" y="870"/><rect fill="#E0E59A" height="5" style="stroke: #0B5C92; stroke-width: 1.5;" width="10" x="347" y="892.4609"/><text fill="#000000" font-family="sans-serif" font-size="15" lengthAdjust="spacingAndGlyphs" textLength="82" x="362" y="888.9233">SonarQube</text><!--MD5=[524ab8556cbb665269a12109d7bc13a8]
entity plantuml_server--><rect fill="#E0E59A" height="37.4609" style="stroke: #0B5C92; stroke-width: 1.5;" width="141" x="489.5" y="865"/><rect fill="#E0E59A" height="5" style="stroke: #0B5C92; stroke-width: 1.5;" width="10" x="484.5" y="870"/><rect fill="#E0E59A" height="5" style="stroke: #0B5C92; stroke-width: 1.5;" width="10" x="484.5" y="892.4609"/><text fill="#000000" font-family="sans-serif" font-size="15" lengthAdjust="spacingAndGlyphs" textLength="121" x="499.5" y="888.9233">PlantUML Server</text><!--MD5=[6cba453d2efd31cc8bdf24f5f05e0794]
entity heimdall2--><rect fill="#E0E59A" height="37.4609" style="stroke: #0B5C92; stroke-width: 1.5;" width="97" x="665.5" y="865"/><rect fill="#E0E59A" height="5" style="stroke: #0B5C92; stroke-width: 1.5;" width="10" x="660.5" y="870"/><rect fill="#E0E59A" height="5" style="stroke: #0B5C92; stroke-width: 1.5;" width="10" x="660.5" y="892.4609"/><text fill="#000000" font-family="sans-serif" font-size="15" lengthAdjust="spacingAndGlyphs" textLength="77" x="675.5" y="888.9233">Heimdall 2</text><!--MD5=[5f66382a65af237d8b1cbd7b4edbed42]
entity you--><ellipse cx="660" cy="17.5" fill="#FFFFFF" rx="8" ry="8" style="stroke: #0B5C92; stroke-width: 1.5;"/><path d="M660,25.5 L660,52.5 M647,33.5 L673,33.5 M660,52.5 L647,67.5 M660,52.5 L673,67.5 " fill="none" style="stroke: #0B5C92; stroke-width: 1.5;"/><text fill="#000000" font-family="sans-serif" font-size="18" lengthAdjust="spacingAndGlyphs" textLength="34" x="643" y="86.708">You</text><!--MD5=[4a0bffc4f18946e47f53278c3dcc1383]
link traefik to gitlab--><path d="M376.1307,270.1561 C306.7191,279.3823 171,302.8724 171,345.5 C171,345.5 171,345.5 171,803.5 C171,822.379 169.5958,843.7153 168.2757,859.6027 " fill="none" id="traefik-gitlab" style="stroke: #0B5C92; stroke-width: 1.0; stroke-dasharray: 7.0,7.0;"/><polygon fill="#0B5C92" points="167.8334,864.7702,172.5864,856.1441,168.2598,859.7884,164.6156,855.4618,167.8334,864.7702" style="stroke: #0B5C92; stroke-width: 1.0;"/><polygon fill="#0B5C92" points="381.4171,269.4639,371.974,266.6662,376.4594,270.113,373.0126,274.5985,381.4171,269.4639" style="stroke: #0B5C92; stroke-width: 1.0;"/><text fill="#000000" font-family="sans-serif" font-size="13" lengthAdjust="spacingAndGlyphs" textLength="26" x="172" y="595.0669">http</text><!--MD5=[e9470e8992ed424a011afbbc46ce35fb]
link traefik to drone--><path d="M376.2242,269.9897 C332.6894,277.3726 269,296.54 269,345.5 C269,345.5 269,345.5 269,803.5 C269,822.4142 270.9658,843.7484 272.814,859.626 " fill="none" id="traefik-drone" style="stroke: #0B5C92; stroke-width: 1.0; stroke-dasharray: 7.0,7.0;"/><polygon fill="#0B5C92" points="273.4332,864.79,276.333,855.3777,272.8378,859.8256,268.3899,856.3304,273.4332,864.79" style="stroke: #0B5C92; stroke-width: 1.0;"/><polygon fill="#0B5C92" points="381.1631,269.1876,371.6382,266.6824,376.2278,269.9893,372.9209,274.5789,381.1631,269.1876" style="stroke: #0B5C92; stroke-width: 1.0;"/><text fill="#000000" font-family="sans-serif" font-size="13" lengthAdjust="spacingAndGlyphs" textLength="26" x="270" y="595.0669">http</text><!--MD5=[e9470e8992ed424a011afbbc46ce35fb]
link traefik to drone--><path d="M392.8027,288.311 C380.1342,303.2351 367,323.9132 367,345.5 C367,345.5 367,345.5 367,803.5 C367,830.3204 344.4274,850.2692 321.7666,863.5384 " fill="none" id="traefik-drone-1" style="stroke: #0B5C92; stroke-width: 1.0; stroke-dasharray: 7.0,7.0;"/><polygon fill="#0B5C92" points="317.2399,866.1032,327.0422,865.1467,321.5901,863.6384,323.0985,858.1863,317.2399,866.1032" style="stroke: #0B5C92; stroke-width: 1.0;"/><polygon fill="#0B5C92" points="396.3522,284.2583,387.4134,288.3932,393.0579,288.0196,393.4315,293.6641,396.3522,284.2583" style="stroke: #0B5C92; stroke-width: 1.0;"/><text fill="#000000" font-family="sans-serif" font-size="13" lengthAdjust="spacingAndGlyphs" textLength="26" x="368" y="595.0669">http</text><!--MD5=[b8653e110259213fb41efeb2525d0a73]
link traefik to taiga--><path d="M375.9638,266.4579 C285.4738,269.7082 73,283.8987 73,345.5 C73,345.5 73,345.5 73,803.5 C73,822.379 71.5958,843.7153 70.2757,859.6027 " fill="none" id="traefik-taiga" style="stroke: #0B5C92; stroke-width: 1.0; stroke-dasharray: 7.0,7.0;"/><polygon fill="#0B5C92" points="69.8334,864.7702,74.5864,856.1441,70.2598,859.7884,66.6156,855.4618,69.8334,864.7702" style="stroke: #0B5C92; stroke-width: 1.0;"/><polygon fill="#0B5C92" points="381.2237,266.2764,372.091,262.5894,376.2267,266.449,372.3671,270.5846,381.2237,266.2764" style="stroke: #0B5C92; stroke-width: 1.0;"/><text fill="#000000" font-family="sans-serif" font-size="13" lengthAdjust="spacingAndGlyphs" textLength="26" x="74" y="595.0669">http</text><!--MD5=[f30901609fb42a36aa8c7f1cc6eb235a]
link traefik to plantuml_server--><path d="M455.7758,269.9897 C499.3106,277.3726 563,296.54 563,345.5 C563,345.5 563,345.5 563,803.5 C563,822.3555 562.1575,843.6932 561.3654,859.5871 " fill="none" id="traefik-plantuml_server" style="stroke: #0B5C92; stroke-width: 1.0; stroke-dasharray: 7.0,7.0;"/><polygon fill="#0B5C92" points="561.1001,864.757,565.5564,855.974,561.3565,859.7636,557.5669,855.5637,561.1001,864.757" style="stroke: #0B5C92; stroke-width: 1.0;"/><polygon fill="#0B5C92" points="450.8369,269.1876,459.0791,274.5789,455.7722,269.9893,460.3618,266.6824,450.8369,269.1876" style="stroke: #0B5C92; stroke-width: 1.0;"/><text fill="#000000" font-family="sans-serif" font-size="13" lengthAdjust="spacingAndGlyphs" textLength="26" x="564" y="595.0669">http</text><!--MD5=[9fd76121e9899f6d78173f7e5a67c62f]
link traefik to sonarqube--><path d="M439.1973,288.311 C451.8658,303.2351 465,323.9132 465,345.5 C465,345.5 465,345.5 465,803.5 C465,826.5024 448.7882,846.8986 432.9444,861.3393 " fill="none" id="traefik-sonarqube" style="stroke: #0B5C92; stroke-width: 1.0; stroke-dasharray: 7.0,7.0;"/><polygon fill="#0B5C92" points="428.9343,864.8804,438.3282,861.9216,432.6822,861.5709,433.033,855.9249,428.9343,864.8804" style="stroke: #0B5C92; stroke-width: 1.0;"/><polygon fill="#0B5C92" points="435.6478,284.2583,438.5685,293.6641,438.9421,288.0196,444.5866,288.3932,435.6478,284.2583" style="stroke: #0B5C92; stroke-width: 1.0;"/><text fill="#000000" font-family="sans-serif" font-size="13" lengthAdjust="spacingAndGlyphs" textLength="26" x="466" y="595.0669">http</text><!--MD5=[19255fa76e8324a5bbe22b8095946230]
link traefik to heimdall2--><path d="M455.6342,269.3865 C528.4199,277.6287 676,299.9561 676,345.5 C676,345.5 676,345.5 676,803.5 C676,824.301 686.6116,845.4578 696.6195,860.7857 " fill="none" id="traefik-heimdall2" style="stroke: #0B5C92; stroke-width: 1.0; stroke-dasharray: 7.0,7.0;"/><polygon fill="#0B5C92" points="699.4169,864.9493,697.718,855.2481,696.6285,860.799,691.0775,859.7096,699.4169,864.9493" style="stroke: #0B5C92; stroke-width: 1.0;"/><polygon fill="#0B5C92" points="450.526,268.8173,459.0275,273.7896,455.4952,269.3712,459.9137,265.8388,450.526,268.8173" style="stroke: #0B5C92; stroke-width: 1.0;"/><text fill="#000000" font-family="sans-serif" font-size="13" lengthAdjust="spacingAndGlyphs" textLength="26" x="677" y="595.0669">http</text><!--MD5=[f05574999751145ba2892489da421d09]
link k3s to private_registry--><path d="M770.0467,524.2798 C770.0833,524.3613 770.1201,524.4427 770.1571,524.524 C770.4528,525.1748 770.7598,525.8212 771.0774,526.4633 C772.3481,529.0315 773.7906,531.5299 775.3784,533.9571 C781.7293,543.6657 790.4038,552.2349 799.6978,559.5772 " fill="none" id="k3s-private_registry" style="stroke: #0B5C92; stroke-width: 1.0; stroke-dasharray: 7.0,7.0;"/><polygon fill="#0B5C92" points="803.9519,562.8245,799.225,554.1841,799.9775,559.7907,794.3709,560.5431,803.9519,562.8245" style="stroke: #0B5C92; stroke-width: 1.0;"/><polygon fill="#0B5C92" points="770.0467,524.2798,770.0878,534.1286,772.0964,528.8403,777.3846,530.849,770.0467,524.2798" style="stroke: #0B5C92; stroke-width: 1.0;"/><text fill="#000000" font-family="sans-serif" font-size="13" lengthAdjust="spacingAndGlyphs" textLength="26" x="766" y="436.0669">http</text><!--MD5=[43eccda0398717c6db732b8f368fa79c]
link you to private_registry--><path d="M681.6749,60.5586 C731.9016,87.905 852,163.9147 852,265.5 C852,265.5 852,265.5 852,501.5 C852,520.1343 852.665,540.9508 853.3689,557.7639 " fill="none" id="you-private_registry" style="stroke: #0B5C92; stroke-width: 1.0;"/><polygon fill="#0B5C92" points="853.5878,562.8463,857.1966,553.6824,853.3725,557.8509,849.204,554.0269,853.5878,562.8463" style="stroke: #0B5C92; stroke-width: 1.0;"/><polygon fill="#0B5C92" points="677.0387,58.0649,683.07,65.851,681.4421,60.4335,686.8597,58.8056,677.0387,58.0649" style="stroke: #0B5C92; stroke-width: 1.0;"/><text fill="#000000" font-family="sans-serif" font-size="13" lengthAdjust="spacingAndGlyphs" textLength="33" x="853" y="389.0669">https</text><!--MD5=[61daf8cf8e0c5533f846d3e0ff8b2ec9]
link you to traefik--><path d="M638.8399,68.2319 C593.9534,107.9675 489.3677,200.5516 441.1586,243.2284 " fill="none" id="you-traefik" style="stroke: #0B5C92; stroke-width: 1.0;"/><polygon fill="#0B5C92" points="437.2291,246.7071,446.6193,243.7365,440.9729,243.3929,441.3165,237.7465,437.2291,246.7071" style="stroke: #0B5C92; stroke-width: 1.0;"/><polygon fill="#0B5C92" points="642.8424,64.6887,633.4521,67.6591,639.0985,68.0028,638.7548,73.6492,642.8424,64.6887" style="stroke: #0B5C92; stroke-width: 1.0;"/><text fill="#000000" font-family="sans-serif" font-size="13" lengthAdjust="spacingAndGlyphs" textLength="33" x="575" y="134.0669">https</text><!--MD5=[78168ba3e30c430c1b79f53a19a4a055]
@startuml
skinparam shadowing false

skinparam actor {
  BorderColor #0B5C92
  BackgroundColor none
  FontStyle "Thin"
  FontSize 18
}

skinparam node {
  BorderColor #0B5C92
  BackgroundColor #ffffff
  FontStyle "Thin"
  FontSize 15
}

skinparam rectangle {
  roundCorner 25
  BorderColor #0B5C92
  BackgroundColor #ffffff
  FontStyle "Thin"
  FontSize 15
}

skinparam component {
  BorderColor #0B5C92
  BackgroundColor #e0e59a
  FontStyle "Thin"
  FontSize 15
}


skinparam note {
  BorderColor #0B5C92
  BackgroundColor #FEFECE
  FontStyle "Thin"
  FontSize 15
}

skinparam database {
  BorderColor #0B5C92
  BackgroundColor #e0e59a
  FontStyle "Thin"
  FontSize 15
}

actor "You" as you

rectangle "Host (e.g., your laptop, desktop)" {

  rectangle "Docker (containerd)" {

    rectangle "K3s Cluster\n(master and agent)" as k3s {
      component "Traefik" as traefik
      component "Taiga" as taiga
      component "GitLab" as gitlab
      component "Drone CI" as drone
      component "SonarQube" as sonarqube
      component "PlantUML Server" as plantuml_server
      component "Heimdall 2" as heimdall2
    }

    component "Private\nContainer Registry" as private_registry
  }
}

traefik <.[#0B5C92]d.> gitlab : http
traefik <.[#0B5C92]d.> drone : http
traefik <.[#0B5C92]d.> taiga : http
traefik <.[#0B5C92]d.> plantuml_server : http
traefik <.[#0B5C92]d.> drone : http
traefik <.[#0B5C92]d.> sonarqube : http
traefik <.[#0B5C92]d.> heimdall2 : http

k3s <.[#0B5C92]d.> private_registry : http

you <-[#0B5C92]d-> private_registry : https
you <-[#0B5C92]d-> traefik : https

@enduml

PlantUML version 1.2020.06(Sun Apr 05 12:38:32 GMT 2020)
(GPL source distribution)
Java Runtime: OpenJDK Runtime Environment
JVM: OpenJDK 64-Bit Server VM
Java Version: 14-ea+33
Operating System: Linux
Default Encoding: UTF-8
Language: en
Country: US
--></g></svg>